# xmcd
#
# Track frame offsets:
#	150
#	15682
#	28556
#	41093
#	56961
#	70215
#	85788
#	100874
#	115047
#	126044
#	138579
#	151602
#
# Disc length: 2220 seconds
#
# Revision: 1
# Processed by: cddbd v1.5.1PL0 Copyright (c) Steve Scherf et al.
# Submitted via: audiograbber 1.83.01
#
DISCID=9808aa0c
DTITLE=Sentimiento Norteño - De Chile para Argentina
DYEAR=2003
DGENRE=Rancheras
TTITLE0=Hoy quisiera
TTITLE1=Contigo
TTITLE2=Del otro lado del portón
TTITLE3=Nomas a mi manera
TTITLE4=Dile
TTITLE5=El señor de las canas
TTITLE6=La media vuelta
TTITLE7=De alguin como tu
TTITLE8=Cupido
TTITLE9=Te quiero
TTITLE10=Legalmente unidos
TTITLE11=El pachangon
EXTD=
EXTT0=
EXTT1=
EXTT2=
EXTT3=
EXTT4=
EXTT5=
EXTT6=
EXTT7=
EXTT8=
EXTT9=
EXTT10=
EXTT11=
PLAYORDER=
